<svg width="41" height="53" viewBox="0 0 41 53" fill="none" xmlns="http://www.w3.org/2000/svg">
<path d="M27.3027 52.3569H13.6036C13.4052 52.3568 13.2133 52.2863 13.0621 52.1578C12.9109 52.0293 12.8103 51.8513 12.7783 51.6555L10.3114 36.4892C10.2759 36.2703 10.3288 36.0463 10.4585 35.8664C10.5881 35.6865 10.7838 35.5655 11.0027 35.5299C11.4582 35.4563 29.4501 35.4553 29.9046 35.5299C30.1233 35.5657 30.3188 35.6869 30.4482 35.8667C30.5776 36.0466 30.6304 36.2705 30.5949 36.4892L28.128 51.6555C28.0959 51.8515 27.9952 52.0296 27.8438 52.1581C27.6924 52.2866 27.5012 52.3571 27.3027 52.3569Z" fill="#F4AA41"/>
<path d="M32.8391 37.1906H8.0672C7.95733 37.1908 7.8485 37.1692 7.74696 37.1272C7.64543 37.0853 7.55317 37.0237 7.47547 36.946C7.39778 36.8683 7.33617 36.776 7.29419 36.6745C7.2522 36.5729 7.23066 36.4641 7.23079 36.3542V31.1675C7.23079 31.0577 7.25243 30.949 7.29448 30.8475C7.33652 30.7461 7.39815 30.654 7.47583 30.5764C7.55351 30.4988 7.64573 30.4373 7.7472 30.3954C7.84867 30.3534 7.95741 30.3319 8.0672 30.3321H32.8391C32.949 30.3319 33.0578 30.3535 33.1594 30.3955C33.2609 30.4374 33.3532 30.499 33.4308 30.5767C33.5085 30.6544 33.5701 30.7467 33.6121 30.8482C33.6541 30.9498 33.6757 31.0586 33.6755 31.1685V36.3552C33.6755 36.465 33.6539 36.5737 33.6118 36.6752C33.5698 36.7766 33.5082 36.8687 33.4305 36.9463C33.3528 37.0239 33.2606 37.0854 33.1591 37.1273C33.0576 37.1693 32.9489 37.1908 32.8391 37.1906Z" fill="#EA5A47"/>
<path d="M20.2516 23.5299C20.0421 23.5299 19.8377 23.4646 19.6671 23.343C19.4964 23.2214 19.3678 23.0497 19.2993 22.8517C18.0316 19.1715 6.02252 11.5551 1.50287 8.92995C1.35037 8.84167 1.22369 8.71496 1.13545 8.56244C1.04722 8.40992 1.00051 8.23693 1 8.06072C0.999494 7.88452 1.0452 7.71126 1.13255 7.55823C1.2199 7.4052 1.34585 7.27776 1.49783 7.1886C3.08395 6.29251 4.85082 5.76353 6.6684 5.64057C8.48599 5.51762 10.308 5.80384 12.0004 6.47815L12.0185 6.48823C20.9157 10.6532 21.2493 22.0193 21.2593 22.501C21.2645 22.7412 21.1837 22.9754 21.0314 23.1613C20.8792 23.3472 20.6655 23.4725 20.429 23.5148C20.3704 23.5251 20.3111 23.5302 20.2516 23.5299Z" fill="#5C9E31"/>
<path d="M35.1891 3.86915C35.3311 3.77423 35.4466 3.64483 35.5249 3.49306C35.6032 3.3413 35.6417 3.17214 35.6367 3.00145C35.6318 2.83075 35.5836 2.6641 35.4967 2.51711C35.4098 2.37013 35.287 2.24761 35.1397 2.16105C33.1117 1.08331 30.7727 0.742018 28.5212 1.19533C26.2697 1.64863 24.2451 2.8685 22.7921 4.64711C17.9036 10.1493 19.0242 18.8087 19.3477 20.7344C17.0047 19.0032 12.2402 16.3811 6.85692 18.5426C6.84428 18.5475 6.83185 18.5529 6.81963 18.5588C6.6463 18.6354 2.58315 20.5087 2.52672 24.9498C2.52498 25.0832 2.54977 25.2157 2.59963 25.3394C2.6495 25.4632 2.72345 25.5758 2.8172 25.6708C2.91095 25.7658 3.02263 25.8412 3.14576 25.8926C3.26888 25.9441 3.401 25.9706 3.53445 25.9706C3.62395 25.9705 3.71305 25.9586 3.79948 25.9353C3.90831 25.9051 14.7202 22.9817 19.9967 23.7224L20.0128 23.7244L20.0249 23.7264C20.0843 23.7308 20.144 23.7298 20.2032 23.7234C20.2442 23.726 20.2852 23.726 20.3262 23.7234L20.3363 23.7224L20.3463 23.7203C25.254 22.9565 33.8761 25.2894 33.9637 25.3125C34.0505 25.3359 34.1399 25.3478 34.2298 25.3478C34.3814 25.3476 34.531 25.3133 34.6674 25.2473C34.8039 25.1812 34.9237 25.0853 35.018 24.9665C35.1122 24.8478 35.1785 24.7093 35.2118 24.5614C35.2451 24.4135 35.2446 24.26 35.2103 24.1123C34.815 22.6789 34.0085 21.3926 32.8905 20.4123C31.7725 19.432 30.3919 18.8006 28.9191 18.5961C26.2696 18.3067 23.6052 18.9896 21.4216 20.5178C21.5959 13.0395 35.0511 3.96085 35.1891 3.86915Z" fill="#B1CC33"/>
<path d="M20.173 22.493C20.0129 22.4929 19.8551 22.4548 19.7127 22.3816C19.5703 22.3085 19.4473 22.2025 19.3541 22.0724C19.2608 21.9422 19.1999 21.7918 19.1763 21.6334C19.1528 21.4751 19.1673 21.3134 19.2187 21.1617C19.3426 20.7969 22.3245 12.2353 29.5106 9.7553C36.9799 7.17552 40.6903 12.9266 40.7276 12.984C40.8193 13.13 40.872 13.297 40.8808 13.4691C40.8896 13.6412 40.854 13.8127 40.7776 13.9672C40.7012 14.1216 40.5864 14.2539 40.4443 14.3514C40.3021 14.4488 40.1374 14.5082 39.9657 14.5239C35.6063 14.9269 23.7121 17.0502 21.0608 21.9639C20.9743 22.1242 20.846 22.258 20.6895 22.3512C20.533 22.4443 20.3551 22.4933 20.173 22.493Z" fill="#5C9E31"/>
<path d="M16.1381 30.3321V29.0019C16.1404 28.4456 16.2577 27.8958 16.4826 27.3869C16.7075 26.8781 17.0352 26.4213 17.4451 26.0452C17.2483 25.6397 17.146 25.1949 17.1458 24.7442C17.1458 23.9424 17.4643 23.1735 18.0313 22.6065C18.5982 22.0396 19.3672 21.721 20.169 21.721C20.9708 21.721 21.7397 22.0396 22.3067 22.6065C22.8736 23.1735 23.1921 23.9424 23.1921 24.7442C23.1918 25.1946 23.0895 25.639 22.8929 26.0442C23.3029 26.4204 23.6308 26.8773 23.8557 27.3863C24.0806 27.8953 24.1978 28.4454 24.1999 29.0019V30.3321H16.1381Z" fill="#A57939"/>
<path d="M11.5912 39.1507L13.6036 51.5215H27.3027L29.3151 39.1507M23.1397 28.4355C23.0486 27.9696 22.8492 27.5316 22.5575 27.157C22.2659 26.7824 21.8902 26.4816 21.4609 26.279C21.7788 26.0137 22.0072 25.6569 22.1152 25.2571C22.2232 24.8574 22.2054 24.4341 22.0643 24.0448C21.9232 23.6555 21.6656 23.3191 21.3266 23.0814C20.9876 22.8437 20.5835 22.7162 20.1695 22.7162C19.7554 22.7162 19.3514 22.8437 19.0124 23.0814C18.6733 23.3191 18.4158 23.6555 18.2747 24.0448C18.1336 24.4341 18.1158 24.8574 18.2237 25.2571C18.3317 25.6569 18.5602 26.0137 18.8781 26.279C18.4473 26.4825 18.0707 26.7847 17.7788 27.1612C17.4869 27.5377 17.288 27.9777 17.1982 28.4456M8.06719 31.1674H32.8401V36.3542H8.06719V31.1674Z" stroke="black" stroke-width="2.01545" stroke-linecap="round" stroke-linejoin="round"/>
<path d="M26.9167 22.8819C29.3888 23.2222 31.8383 23.7105 34.2519 24.3441C33.8974 23.1083 33.1921 22.0019 32.2214 21.1589C31.2507 20.3159 30.0563 19.7726 28.783 19.5947C24.2493 18.8752 20.1922 22.7318 20.1922 22.7318M20.2375 22.5171C20.2375 22.5171 20.0087 11.3425 11.5771 7.3942C10.0304 6.78871 8.36862 6.53367 6.7115 6.64746C5.05437 6.76125 3.44309 7.24102 1.99363 8.05224C6.02906 10.424 9.93673 13.0066 13.7004 15.7896" stroke="black" stroke-width="2.01545" stroke-linecap="round" stroke-linejoin="round"/>
<path d="M20.174 22.7277C20.174 22.7277 14.168 16.6975 7.23683 19.4778C7.23683 19.4778 3.58685 21.1144 3.53848 24.9629C7.08617 24.0209 10.6914 23.3107 14.3312 22.8366M20.1911 21.4852C23.6839 15.0146 39.8922 13.5201 39.8922 13.5201C39.8922 13.5201 36.6604 8.36058 29.8583 10.7086" stroke="black" stroke-width="2.01545" stroke-linecap="round" stroke-linejoin="round"/>
<path d="M20.4007 20.9299C20.0934 12.727 34.6218 3.03071 34.6218 3.03071C32.7981 2.05803 30.6917 1.75407 28.6674 2.1715C26.6432 2.58893 24.8288 3.70145 23.5388 5.31623C22.3136 6.73276 21.4074 8.39615 20.8814 10.1936" stroke="black" stroke-width="2.01545" stroke-linecap="round" stroke-linejoin="round"/>
</svg>
